<svg width="74" height="74" viewBox="0 0 74 74" fill="none" xmlns="http://www.w3.org/2000/svg">
<g clip-path="url(#clip0)">
<path d="M8.19444 60.1814C7.50894 61.8252 4.52641 69.3634 5.79069 73.1567C5.93016 73.5746 6.28194 73.8868 6.7139 73.9749C7.14587 74.0636 7.59195 73.9145 7.88388 73.5848C8.17637 73.255 8.27067 72.7942 8.1312 72.3764C7.3418 70.0088 9.20348 64.0911 10.5621 60.9166C10.6276 60.7636 10.6614 60.5982 10.6614 60.4316C10.6614 54.6964 10.6614 54.6964 15.3255 48.8657C17.4424 46.2163 17.819 42.7832 16.5107 38.9802C18.1573 39.804 19.8501 40.5319 21.5808 41.1598C21.8772 42.0333 21.8654 42.9825 21.5464 43.8481C21.2448 44.4568 21.4922 45.1948 22.0997 45.4992C22.115 45.5065 23.5995 46.2846 22.7146 48.9397C22.5752 49.3157 22.6288 49.7358 22.8569 50.0656C23.0856 50.3948 23.4606 50.5918 23.862 50.5935C24.102 50.593 24.3358 50.5184 24.5317 50.3795C24.5441 50.3728 25.7796 49.7381 29.8649 49.9193C29.857 50.1288 29.8598 50.344 29.8649 50.5597C27.9931 50.5529 26.1783 51.2017 24.7344 52.3931C24.3047 52.807 23.9484 53.2915 23.6819 53.8256C22.5085 53.3299 21.2098 53.2141 19.967 53.4936C17.7863 54.0086 15.9444 55.7415 14.4926 58.6461C14.1877 59.2554 14.435 59.9962 15.0443 60.3012C15.6536 60.6061 16.3944 60.3587 16.6993 59.7495C17.8021 57.5439 19.0833 56.2497 20.508 55.9008C21.3645 55.7144 22.2595 55.8313 23.0393 56.2311C23.028 56.3994 22.9964 56.5558 22.9964 56.7308C22.9964 57.4118 23.5492 57.964 24.2302 57.964C24.9112 57.964 25.464 57.4118 25.464 56.7308C25.4018 55.7907 25.7474 54.8697 26.412 54.2023C27.5334 53.3666 28.9129 52.951 30.3087 53.0278C30.372 53.2169 30.4448 53.4022 30.5278 53.5828C30.7249 53.977 31.1173 54.2362 31.5572 54.2627C31.9976 54.2892 32.4177 54.0786 32.6605 53.711C32.9039 53.3429 32.9316 52.8736 32.7345 52.4795C31.9163 50.8431 32.5058 48.1508 32.8023 47.2513C32.9045 46.9419 32.8802 46.6042 32.7345 46.3117C31.8311 44.5043 30.3979 41.0469 30.3979 39.4613C30.416 39.0372 30.6278 38.6448 30.9728 38.3975C31.1608 38.2461 31.3861 38.149 31.625 38.118C31.6295 38.1541 31.6317 38.1914 31.6312 38.2281C31.6718 39.2095 31.8903 40.1756 32.2766 41.079C32.2896 41.1073 32.2958 41.1383 32.3104 41.1649C32.4172 41.4314 32.5222 41.6951 32.6459 41.9582C32.6555 41.987 32.6741 42.0096 32.6859 42.0378C33.4511 43.6561 34.4556 45.1508 35.6662 46.4698C36.0485 47.0486 35.9005 50.0605 35.3557 52.7889C35.3523 52.8076 35.359 52.8245 35.3557 52.8431C35.3528 52.8618 35.3415 52.8759 35.3393 52.894C34.2489 62.7066 26.9987 62.8952 26.6972 62.8986C26.1929 62.8986 25.7395 63.2052 25.5515 63.6733C23.3798 69.1042 16.6914 70.3046 16.6237 70.3171C15.9619 70.4396 15.5209 71.0703 15.6327 71.7338C15.7439 72.3978 16.3667 72.8496 17.0319 72.7496C17.6152 72.6395 18.1912 72.4933 18.7564 72.312C18.7005 72.6841 18.7807 73.0641 18.9822 73.382C19.2471 73.7525 19.6677 73.9806 20.1229 73.9998C20.5351 74.0003 20.9202 73.7942 21.1488 73.4509C21.3781 73.1082 21.4199 72.6734 21.2618 72.2923C21.3826 71.8829 21.5294 71.4808 21.7005 71.0895C24.224 69.8405 26.2726 67.8049 27.5363 65.2888C31.2291 64.7625 34.429 62.4576 36.0987 59.1216C39.3433 58.7986 42.5071 57.9126 45.4478 56.5038C46.2716 56.1633 47.1006 55.8308 47.9346 55.5134C48.0616 55.5162 48.1824 55.5202 48.3208 55.5202C51.1379 55.5202 56.0894 54.9465 58.3999 52.676C60.8534 50.4518 62.9838 47.895 64.7286 45.0802C65.4232 44.214 65.6671 43.07 65.3853 41.996C65.238 41.5635 64.9839 41.175 64.6473 40.8662C67.3108 37.7227 68.7304 33.7125 68.6366 29.5933C68.6366 19.4972 68.6366 11.5225 56.8025 6.26331L54.3959 5.18707C44.8803 0.918817 39.6375 -1.43299 30.0981 0.951002C23.5266 2.59416 21.0512 4.95726 19.2442 6.68229C18.517 7.48862 17.6344 8.14024 16.6502 8.59874C16.5785 8.62415 16.5085 8.65351 16.4407 8.68683C13.9907 9.49994 13.0776 12.3108 13.8427 16.4272C13.2888 16.819 12.7687 17.2572 12.2882 17.7366C11.3311 18.5452 10.7444 19.7084 10.6614 20.9586C10.6885 21.6808 10.789 22.3979 10.9607 23.0997C11.0121 23.3488 11.0657 23.6057 11.1143 23.8699C11.1165 23.8897 11.1194 23.9095 11.1228 23.9292C11.225 24.4527 11.2775 24.984 11.278 25.517C11.2622 26.6373 10.9522 28.1416 8.68795 29.8406C7.07924 31.0468 6.42706 32.2952 6.74835 33.5499C7.34067 35.8622 11.1815 36.7012 12.7049 36.9446C12.7795 36.9881 12.8749 37.0434 12.9839 37.1061C14.627 40.061 15.9483 44.1338 13.3989 47.3259C8.35819 53.6263 8.19783 53.947 8.19444 60.1814ZM30.1947 47.4636C28.6142 47.3552 27.0269 47.4032 25.4566 47.6076C25.5402 46.2575 25.0518 44.9351 24.111 43.9639C24.259 43.3044 24.2974 42.6245 24.2234 41.952C25.6373 42.236 27.0698 42.4139 28.5103 42.4833C29.01 44.0192 29.6131 45.5195 30.3138 46.9746C30.2777 47.1124 30.2365 47.2807 30.1947 47.4636ZM36.0745 43.0079C38.9757 43.3219 41.7363 43.9097 43.0943 45.2682C43.7098 45.8544 44.4534 46.288 45.266 46.5353C44.4004 47.192 43.4704 47.759 42.4896 48.2265C41.1762 48.7708 39.7583 49.0164 38.3382 48.9459C38.4121 47.1943 38.2275 45.5466 37.4375 44.7572C36.9316 44.2169 36.4748 43.6307 36.0745 43.0074V43.0079ZM47.519 53.025C47.4388 53.0543 47.3603 53.0899 47.2807 53.1198C47.2299 53.1362 47.1807 53.156 47.1327 53.1786C46.2507 53.5123 45.3755 53.8646 44.5059 54.2243C42.1564 55.3186 39.6742 56.1024 37.1219 56.5552C37.4342 55.4812 37.6527 54.3824 37.7758 53.2712C37.8848 52.7251 37.9988 52.0871 38.0971 51.4117C39.9791 51.51 41.8588 51.1757 43.5912 50.4343C45.5432 49.5292 47.2982 48.2485 48.7556 46.6658C48.96 46.4348 49.1762 46.2146 49.4038 46.0063C50.0746 45.3597 50.6652 44.6347 51.161 43.8459C51.7387 42.7928 52.7878 42.0813 53.9804 41.9339C54.3276 41.9029 54.6771 41.9622 54.9939 42.1067C54.89 42.4167 54.6534 43.0345 54.126 44.1903L54.0967 44.2547C54.0899 44.2716 54.0803 44.2857 54.0747 44.3027C53.8821 44.7132 53.6918 45.1305 53.4998 45.554C52.0887 48.6635 50.6297 51.8804 47.519 53.025ZM62.6767 43.7115C61.0239 46.3846 59.0024 48.8103 56.671 50.9171C55.3609 51.9069 53.807 52.5235 52.174 52.7003C53.6658 50.8488 54.8697 48.7827 55.746 46.572C55.8708 46.2971 55.9979 46.0238 56.1232 45.7499C57.6247 45.3309 59.1035 44.8352 60.5541 44.266C61.195 43.9221 61.8014 43.5184 62.3661 43.0599C62.5383 42.9255 62.7207 42.7736 62.907 42.6132C62.9635 42.6544 63.0104 42.7075 63.0431 42.7691C63.0753 42.8662 63.0341 43.1745 62.6767 43.7115ZM16.9489 11.1521C18.0257 11.8901 18.4932 13.2459 18.1002 14.491C17.8812 15.3594 17.308 15.6446 16.2098 15.7242C15.967 14.26 15.7688 11.8229 16.9489 11.1521ZM14.6287 35.2026C14.5898 35.1806 14.535 35.1507 14.4989 35.1304C14.0483 34.8763 13.7795 34.7131 13.7699 34.7074C13.649 34.6391 13.5169 34.5922 13.3803 34.568L14.3424 33.7797C14.8625 33.346 14.9359 32.5742 14.5068 32.0501C14.0776 31.5267 13.3063 31.4465 12.7789 31.8712L10.4412 33.7876C9.69869 33.4883 9.19671 33.1704 9.13911 32.9423C9.13911 32.9389 9.18316 32.5527 10.1685 31.8136C11.47 30.9033 12.5084 29.6656 13.1787 28.2257C14.3238 29.3765 15.0426 29.5933 15.5954 29.5933C16.8823 29.4708 18.0093 28.6786 18.5604 27.5092C19.1087 26.4854 19.7462 24.3437 17.8546 21.5068C17.3018 20.4504 16.2098 19.7858 15.0166 19.7801C14.3667 19.8332 13.7501 20.0901 13.2549 20.5142C13.4514 20.1257 13.7157 19.775 14.0347 19.4786C14.5079 19.011 15.0251 18.5898 15.5785 18.2194C17.0088 18.2092 19.7553 18.0252 20.4927 15.0901C21.0224 13.273 20.5559 11.3114 19.2651 9.92738C19.8563 9.47679 20.4182 8.98892 20.9478 8.46718C22.6446 6.84604 24.7576 4.82964 30.6972 3.34516C39.4088 1.16783 44.0791 3.26328 53.3863 7.43837L55.8008 8.51743C66.1696 13.1262 66.1696 19.6773 66.1696 29.5933C66.2837 33.6148 64.697 37.4974 61.7992 40.288L61.7958 40.2913C61.4587 40.6109 61.1346 40.8904 60.841 41.1203C60.4265 41.4506 59.9895 41.7515 59.5338 42.0209C59.4372 42.0593 58.6027 42.3868 57.3627 42.7933C57.4699 42.5172 57.5287 42.2247 57.5349 41.9289C57.427 40.7984 56.5891 39.8729 55.475 39.6533C53.7534 39.1321 51.0543 39.559 49.1045 42.4822C48.7189 43.1005 48.2615 43.6708 47.742 44.1818C47.6375 44.2761 47.5421 44.3862 47.4388 44.489C46.4885 44.4659 45.5737 44.1259 44.8385 43.5234C43.2276 41.9125 40.6104 41.1491 37.7001 40.7295C40.4782 39.773 42.7228 37.6871 43.8786 34.9858C44.2072 34.1631 45.2084 31.6594 43.8007 30.176C42.1508 28.4369 38.7131 29.6074 35.6809 30.6402L34.9412 30.8903C32.0213 31.8661 28.8321 28.7503 28.8022 28.7215C28.3183 28.2539 27.5487 28.2607 27.0732 28.7362C26.5972 29.2122 26.5905 29.9818 27.058 30.4657C27.2313 30.6396 31.3477 34.6894 35.7215 33.2309L36.4748 32.9762C37.7052 32.5572 41.45 31.2816 42.0107 31.874C42.0135 31.8774 42.2868 32.3201 41.5867 34.0694C40.2563 37.3986 36.7481 38.6775 34.2348 39.1688C34.1529 38.8616 34.1072 38.546 34.0982 38.2281C34.1286 37.5245 33.87 36.8385 33.3827 36.3303C32.9214 35.8819 32.3003 35.6369 31.6571 35.6498C29.6097 35.7504 27.9852 37.4121 27.931 39.4613C27.931 39.62 27.9569 39.8007 27.9722 39.9723C26.8163 39.9057 25.6672 39.7476 24.5357 39.5003C24.0325 39.3715 23.5181 39.2191 22.9896 39.0429C22.2731 38.8057 21.5452 38.5251 20.8264 38.2298L22.3945 36.952C22.7361 36.673 22.9032 36.2337 22.8327 35.7984C22.7626 35.3636 22.4656 34.9988 22.0534 34.8424C21.6418 34.6854 21.1771 34.7605 20.8355 35.0389L18.3001 37.1055C17.8439 36.8876 17.4035 36.6719 16.9946 36.4641L18.111 35.5618C18.6406 35.1332 18.7231 34.3562 18.2945 33.8266C17.8659 33.2964 17.0889 33.2145 16.5593 33.6425L14.6287 35.2026ZM13.618 23.9524C14.391 22.6034 14.9873 22.2516 15.1443 22.2437C15.2572 22.2403 15.4893 22.4075 15.8026 22.8767C16.5932 23.7852 16.8439 25.0433 16.4627 26.1856C16.3069 26.5775 16.02 26.9033 15.6508 27.1071C14.9054 26.5408 14.2544 25.8592 13.7241 25.0873C13.7089 24.7073 13.6733 24.3284 13.618 23.9524Z" fill="white"/>
<path d="M28.1378 27.2866C28.6189 27.2889 29.0977 27.2138 29.5545 27.063C33.6556 25.6954 34.0983 24.0641 34.0983 23.426C34.0085 21.3684 32.8007 19.5248 30.9498 18.6219C30.3112 18.2046 29.7476 17.6812 29.2846 17.0753C28.3179 15.9748 27.2213 14.7269 25.5838 14.6738C24.2377 14.7196 22.9774 15.3435 22.1247 16.3859C20.2975 18.2351 20.0931 21.1409 21.6436 23.2278C23.0344 25.5413 25.4483 27.0506 28.1378 27.2866ZM23.8695 18.1307C24.2761 17.6225 24.8464 17.2724 25.4833 17.1397H25.5048C26.0745 17.1583 26.7651 17.9438 27.432 18.7032C28.092 19.561 28.9119 20.2826 29.847 20.8286C30.8001 21.286 31.4625 22.1883 31.6127 23.2352C30.8092 23.9647 29.8323 24.4769 28.7747 24.7225C27.3371 25.1968 24.9418 23.8693 23.743 21.9308C22.8294 20.8105 22.8831 19.1877 23.869 18.1301L23.8695 18.1307Z" fill="white"/>
<path d="M55.7716 13.4375C61.5938 16.2128 61.3934 26.7561 61.3911 26.8623C61.3736 27.5427 61.9106 28.109 62.591 28.1271L62.6243 28.1277C63.2923 28.1277 63.8389 27.5958 63.8564 26.9278C63.8705 26.4292 64.1032 14.6764 56.8326 11.2105C56.4345 11.0168 55.963 11.0518 55.5977 11.302C55.2318 11.5521 55.0285 11.979 55.0647 12.4206C55.1008 12.8616 55.3707 13.25 55.7716 13.4375Z" fill="white"/>
</g>
<defs>
<clipPath id="clip0">
<rect width="74" height="74" fill="white"/>
</clipPath>
</defs>
</svg>
